<svg width="26" height="26" viewBox="0 0 26 26" fill="none" xmlns="http://www.w3.org/2000/svg">
<path d="M18.9584 12.9999C19.7475 12.9893 20.5309 13.1355 21.2631 13.4301C21.9953 13.7248 22.6616 14.1619 23.2234 14.7162C23.7852 15.2705 24.2313 15.9309 24.5358 16.659C24.8403 17.3871 24.9971 18.1685 24.9971 18.9577C24.9971 19.7469 24.8403 20.5283 24.5358 21.2564C24.2313 21.9845 23.7852 22.6449 23.2234 23.1992C22.6616 23.7535 21.9953 24.1906 21.2631 24.4853C20.5309 24.7799 19.7475 24.9261 18.9584 24.9155C17.3781 24.9155 15.8626 24.2877 14.7452 23.1703C13.6278 22.0529 13.0001 20.5374 13.0001 18.9572C13.0001 17.3769 13.6278 15.8614 14.7452 14.744C15.8626 13.6266 17.3781 12.9988 18.9584 12.9988V12.9999ZM13.0001 2.16333C18.9844 2.16333 23.8356 7.0145 23.8356 12.9988C23.8356 13.2837 23.8247 13.5665 23.8031 13.846C23.3262 13.3934 22.7883 13.0098 22.2051 12.7063C22.148 10.9106 21.5669 9.17084 20.5334 7.70127C19.4999 6.2317 18.0591 5.09652 16.3885 4.43555C14.7179 3.77459 12.8904 3.6167 11.1312 3.98135C9.37198 4.346 7.75784 5.21725 6.48759 6.48779C5.21734 7.75833 4.34646 9.37267 3.98221 11.132C3.61797 12.8913 3.77627 14.7187 4.43761 16.3891C5.09896 18.0596 6.23447 19.5001 7.70428 20.5333C9.17409 21.5665 10.914 22.1472 12.7097 22.2039C13.0131 22.7889 13.3976 23.3262 13.8472 23.8007C13.5688 23.8224 13.2861 23.8332 13.0001 23.8332C7.01572 23.8332 2.16455 18.9821 2.16455 12.9988C2.16455 7.01558 7.01572 2.16441 13.0001 2.16441V2.16333ZM18.9584 15.1633L18.8609 15.172C18.7527 15.1918 18.653 15.244 18.5752 15.3218C18.4974 15.3996 18.4452 15.4993 18.4254 15.6075L18.4167 15.705V18.4133L15.7062 18.4166L15.6087 18.4252C15.5005 18.445 15.4008 18.4973 15.323 18.5751C15.2453 18.6529 15.193 18.7525 15.1732 18.8607L15.1646 18.9582L15.1732 19.0557C15.193 19.164 15.2453 19.2636 15.323 19.3414C15.4008 19.4192 15.5005 19.4715 15.6087 19.4912L15.7062 19.4999H18.4167V22.2126L18.4254 22.3101C18.4454 22.4181 18.4977 22.5175 18.5755 22.5951C18.6533 22.6727 18.7528 22.7248 18.8609 22.7445L18.9584 22.7542L19.0559 22.7445C19.1641 22.7247 19.2638 22.6725 19.3416 22.5947C19.4194 22.5169 19.4716 22.4172 19.4914 22.309L19.5001 22.2115V19.4988L22.2127 19.4999L22.3102 19.4912C22.4184 19.4715 22.5181 19.4192 22.5959 19.3414C22.6737 19.2636 22.7259 19.164 22.7457 19.0557L22.7544 18.9582L22.7457 18.8607C22.7259 18.7525 22.6737 18.6529 22.5959 18.5751C22.5181 18.4973 22.4184 18.445 22.3102 18.4252L22.2127 18.4166H19.5001V15.7082L19.4914 15.6107C19.4718 15.5023 19.4196 15.4024 19.3418 15.3244C19.264 15.2464 19.1643 15.194 19.0559 15.1742L18.9584 15.1655V15.1633ZM9.16722 16.0137C9.87869 16.9194 10.8882 17.5436 12.0164 17.7752C11.9238 18.3153 11.8951 18.8643 11.9308 19.4111C10.3322 19.1469 8.89052 18.2935 7.88997 17.0191C7.82396 16.9352 7.77511 16.8392 7.74622 16.7364C7.71733 16.6337 7.70895 16.5263 7.72158 16.4203C7.7342 16.3143 7.76758 16.2118 7.8198 16.1188C7.87202 16.0257 7.94206 15.9438 8.02593 15.8778C8.10979 15.8118 8.20584 15.7629 8.30858 15.734C8.41132 15.7051 8.51875 15.6968 8.62473 15.7094C8.73071 15.722 8.83316 15.7554 8.92624 15.8076C9.01932 15.8598 9.10121 15.9299 9.16722 16.0137ZM9.75005 9.47908C9.93103 9.47396 10.1112 9.50518 10.2799 9.57091C10.4486 9.63663 10.6024 9.73552 10.7323 9.86172C10.8621 9.98792 10.9653 10.1389 11.0357 10.3057C11.1062 10.4724 11.1425 10.6517 11.1425 10.8327C11.1425 11.0138 11.1062 11.193 11.0357 11.3598C10.9653 11.5265 10.8621 11.6775 10.7323 11.8037C10.6024 11.9299 10.4486 12.0288 10.2799 12.0945C10.1112 12.1602 9.93103 12.1915 9.75005 12.1863C9.39768 12.1764 9.06308 12.0294 8.81736 11.7766C8.57165 11.5238 8.43418 11.1852 8.43418 10.8327C8.43418 10.4802 8.57165 10.1416 8.81736 9.8888C9.06308 9.63604 9.39768 9.48905 9.75005 9.47908ZM16.2501 9.47908C16.431 9.47396 16.6112 9.50518 16.7799 9.57091C16.9486 9.63663 17.1024 9.73552 17.2323 9.86172C17.3621 9.98792 17.4653 10.1389 17.5357 10.3057C17.6062 10.4724 17.6425 10.6517 17.6425 10.8327C17.6425 11.0138 17.6062 11.193 17.5357 11.3598C17.4653 11.5265 17.3621 11.6775 17.2323 11.8037C17.1024 11.9299 16.9486 12.0288 16.7799 12.0945C16.6112 12.1602 16.431 12.1915 16.2501 12.1863C15.8977 12.1764 15.5631 12.0294 15.3174 11.7766C15.0716 11.5238 14.9342 11.1852 14.9342 10.8327C14.9342 10.4802 15.0716 10.1416 15.3174 9.8888C15.5631 9.63604 15.8977 9.48905 16.2501 9.47908Z" fill="#E3E3E3"/>
</svg>
