<svg width="254" height="54" viewBox="0 0 254 54" fill="none" xmlns="http://www.w3.org/2000/svg">
<g clip-path="url(#clip0_4647_41723)">
<path d="M11.7737 24.3285C14.239 24.7174 16.4496 26.9627 16.8175 29.4403C17.3291 32.0887 17.8419 34.7371 18.3533 37.3858C18.5206 38.2207 18.476 39.0998 18.0891 39.8161C17.6577 40.6809 16.7396 41.2591 15.7365 41.2496C15.5039 41.2453 15.2715 41.2304 15.0373 41.205C12.2046 40.8526 9.3746 40.4885 6.54236 40.144C3.85478 39.8482 1.40738 37.3166 1.17373 34.6176C0.864361 32.217 0.554338 29.8157 0.238661 27.4149C0.157733 26.7271 0.0320156 26.038 0.0197659 25.3504C0.00413861 24.1873 0.770688 23.1546 1.82582 22.7936C2.49089 22.5453 3.24741 22.5752 3.96992 22.723C6.57139 23.2585 9.17232 23.7955 11.7737 24.3285Z" fill="#295BFF"/>
<path d="M39.8634 28.1497C42.3287 28.5386 44.5394 30.7839 44.9074 33.2615C45.4188 35.9099 45.9315 38.5586 46.4431 41.207C46.6104 42.0419 46.5656 42.921 46.1787 43.6373C45.7475 44.5021 44.8293 45.0803 43.8263 45.071C43.5937 45.0665 43.3613 45.0516 43.1269 45.0262C40.2944 44.6738 37.4644 44.3099 34.6321 43.9652C31.9446 43.6694 29.4972 41.1378 29.2634 38.4389C28.954 36.0382 28.6442 33.637 28.3285 31.2361C28.2474 30.5483 28.1218 29.8592 28.1096 29.1716C28.0939 28.0085 28.8604 26.9758 29.9155 26.6148C30.5807 26.3668 31.3371 26.3964 32.0597 26.5442C34.6611 27.0797 37.2622 27.617 39.8634 28.1497Z" fill="#295BFF"/>
<path d="M7.92858 11.765C7.82468 13.523 8.21034 15.3128 8.44274 17.0851C9.21391 22.6287 10.0075 28.1707 10.78 33.7129C11.3947 38.441 15.0298 42.8313 19.4286 44.8213C21.3467 45.7031 23.3942 45.8162 25.3904 46.1105C30.0565 46.7233 34.7193 47.3758 39.3845 47.9957C40.9769 48.1838 42.5791 48.5129 44.1612 48.4525C43.8903 49.6493 43.4917 50.827 42.698 51.7364C41.3284 53.3994 39.0012 54.0433 36.7522 53.693C30.3389 52.8246 23.9247 51.9421 17.5121 51.088C11.6618 50.3495 6.27062 44.9297 5.48157 39.0575C4.67242 33.227 3.82929 27.3944 3.02579 21.5641C2.70378 19.4903 2.24814 17.2529 3.10811 15.3852C3.87901 13.3694 5.80907 12.1067 7.9299 11.7637L7.92858 11.765Z" fill="#295BFF"/>
<path d="M17.4064 18.6703C19.8718 19.0591 22.0826 21.3045 22.4504 23.7821C22.962 26.4305 23.4747 29.0789 23.9861 31.7274C24.1534 32.5625 24.1088 33.4416 23.7219 34.1579C23.2905 35.0227 22.3724 35.6009 21.3693 35.5914C21.1367 35.5871 20.9043 35.5719 20.6701 35.5466C17.8374 35.1944 15.0073 34.8303 12.1752 34.4856C9.48762 34.1898 7.04019 31.6581 6.80654 28.9592C6.49717 26.5586 6.18715 24.1575 5.87147 21.7565C5.79054 21.0689 5.66485 20.3795 5.65258 19.6922C5.63697 18.5289 6.4035 17.4962 7.45863 17.1354C8.1237 16.8871 8.88022 16.917 9.60275 17.0648C12.2042 17.6 14.8051 18.1373 17.4064 18.6703Z" fill="#7487FF"/>
<path d="M45.4925 22.4896C47.9578 22.8784 50.1686 25.1238 50.5363 27.6013C51.0479 30.2498 51.5606 32.8984 52.072 35.5469C52.2393 36.3818 52.1947 37.2608 51.8079 37.9771C51.3764 38.8419 50.4584 39.4204 49.4552 39.4109C49.2228 39.4066 48.9902 39.3914 48.756 39.3661C45.9233 39.0139 43.0933 38.6498 40.2612 38.3051C37.5735 38.0093 35.1261 35.4776 34.8925 32.7787C34.5832 30.3781 34.2731 27.9768 33.9574 25.576C33.8765 24.8882 33.7509 24.199 33.7385 23.5114C33.723 22.3484 34.4895 21.3156 35.5447 20.9547C36.2096 20.7066 36.9662 20.7363 37.6888 20.884C40.2903 21.4195 42.8911 21.9568 45.4925 22.4896Z" fill="#7487FF"/>
<path d="M7.93067 11.7646C8.22108 8.69573 10.8802 6.45617 13.9351 6.41797C13.9804 7.95665 14.2771 9.50459 14.4748 11.0466C15.2395 16.4312 15.9914 21.8163 16.7419 27.1999C17.3301 33.25 22.8733 38.9778 28.8979 39.7068C35.2475 40.5457 41.597 41.4302 47.9477 42.2891C48.4714 42.35 48.9925 42.3894 49.5149 42.4063C49.3735 45.4699 47.2381 48.1317 44.1606 48.4546C42.5785 48.5151 40.9764 48.1862 39.3837 47.9981C34.7217 47.3782 30.056 46.7257 25.3899 46.1129C23.3964 45.8186 21.3461 45.7055 19.4281 44.8235C15.0292 42.8336 11.3941 38.4434 10.7794 33.7153C10.0056 28.1744 9.21333 22.6309 8.44219 17.0873C8.20827 15.3136 7.82261 13.5236 7.92802 11.7673L7.93067 11.7646Z" fill="#7487FF"/>
<path d="M23.0315 13.012C25.4968 13.4008 27.7076 15.6464 28.0753 18.1237C28.5869 20.7722 29.0996 23.4208 29.611 26.0693C29.7785 26.9042 29.7337 27.7834 29.3469 28.4995C28.9154 29.3643 27.9974 29.9428 26.9944 29.9333C26.7618 29.929 26.5292 29.9138 26.295 29.8885C23.4625 29.5363 20.6325 29.1722 17.8002 28.8275C15.1127 28.5317 12.6652 26 12.4315 23.3011C12.1222 20.9005 11.8122 18.4992 11.4965 16.0983C11.4156 15.4106 11.2898 14.7214 11.2776 14.0338C11.262 12.8707 12.0285 11.838 13.0837 11.4771C13.7486 11.229 14.5052 11.2588 15.2278 11.4066C17.8293 11.9419 20.4301 12.4792 23.0315 13.012Z" fill="#D9DDFF"/>
<path d="M51.1215 16.8313C53.5867 17.2201 55.7975 19.4657 56.1652 21.943C56.6768 24.5917 57.1895 27.2401 57.7009 29.8885C57.8682 30.7234 57.8236 31.6027 57.4368 32.3188C57.0053 33.1836 56.0873 33.7621 55.0843 33.7526C54.8517 33.7483 54.6191 33.7331 54.3849 33.7078C51.5524 33.3556 48.7224 32.9914 45.8901 32.6467C43.2024 32.3509 40.755 29.8193 40.5215 27.1204C40.2121 24.7198 39.902 22.3185 39.5863 19.9176C39.5055 19.2301 39.3798 18.5407 39.3674 17.8531C39.3519 16.69 40.1184 15.6573 41.1736 15.2963C41.8385 15.0483 42.5951 15.0782 43.3177 15.2259C45.9192 15.7612 48.52 16.2985 51.1215 16.8313Z" fill="#D9DDFF"/>
<path d="M40.234 4.41264C45.7643 5.34328 50.7691 10.4256 51.6525 15.983C52.8615 21.9267 54.0734 27.8704 55.2826 33.8141C55.6773 35.688 55.5985 37.6559 54.7491 39.2506C53.8038 41.1766 51.7617 42.4497 49.5151 42.4042C48.994 42.3888 48.4732 42.3494 47.9479 42.287C41.5958 41.4294 35.2492 40.5452 28.8981 39.7046C22.8721 38.977 17.3303 33.2478 16.7421 27.198C15.9918 21.8142 15.2397 16.429 14.475 11.0445C14.2773 9.50245 13.9794 7.95584 13.9353 6.41582C13.8725 3.81057 15.5642 1.51637 17.9187 0.733768C19.4021 0.194145 21.0971 0.27922 22.7188 0.627758C28.5576 1.88987 34.3953 3.15618 40.234 4.41264Z" fill="#D9DDFF"/>
<path d="M41.37 19.2756C42.3944 19.5067 43.3541 20.6542 43.5597 21.8879C43.8279 23.2087 44.0967 24.5295 44.3651 25.8503C44.452 26.267 44.4529 26.702 44.3091 27.051C44.1501 27.4731 43.7844 27.7456 43.3707 27.7252C43.2748 27.7196 43.1789 27.7085 43.0816 27.6922C41.9069 27.4735 40.733 27.249 39.5585 27.0342C38.4445 26.8459 37.381 25.553 37.2261 24.2113C37.0466 23.0165 36.8665 21.8213 36.6843 20.6263C36.6361 20.2841 36.5693 19.9406 36.5492 19.5995C36.5175 19.0228 36.8109 18.5227 37.2378 18.3602C37.5065 18.2475 37.8188 18.2742 38.1198 18.3586C39.2034 18.6643 40.2867 18.971 41.37 19.2756Z" fill="#295BFF"/>
<path d="M30.4997 17.0685C31.5587 17.2566 32.518 18.4045 32.6884 19.6817C32.9213 21.0464 33.1546 22.4114 33.3874 23.7761C33.4635 24.2063 33.4489 24.6603 33.2865 25.0322C33.1059 25.4808 32.7152 25.7843 32.2851 25.7845C32.1854 25.7834 32.0856 25.7768 31.9852 25.765C30.7688 25.5978 29.5535 25.4244 28.3373 25.261C27.1835 25.122 26.1214 23.8277 26.0074 22.4354C25.8624 21.1976 25.7172 19.9594 25.5697 18.7216C25.5314 18.367 25.474 18.0116 25.4652 17.6568C25.4526 17.0563 25.7759 16.5193 26.2265 16.3276C26.5105 16.1958 26.835 16.2074 27.1455 16.28C28.2637 16.543 29.3817 16.8069 30.4997 17.0685Z" fill="#295BFF"/>
<path d="M245.767 39.67C244.134 39.67 242.671 39.3823 241.374 38.807C240.079 38.2075 239.048 37.4045 238.28 36.3976C237.534 35.3907 237.127 34.2758 237.055 33.0532H242.13C242.227 33.8204 242.599 34.4557 243.247 34.9591C243.918 35.4626 244.747 35.7143 245.731 35.7143C246.69 35.7143 247.433 35.5226 247.962 35.139C248.514 34.7554 248.789 34.2638 248.789 33.6645C248.789 33.0172 248.453 32.5379 247.782 32.2262C247.134 31.8906 246.089 31.531 244.65 31.1473C243.161 30.7877 241.939 30.4161 240.98 30.0325C240.043 29.6491 239.228 29.0615 238.532 28.2705C237.859 27.4793 237.523 26.4124 237.523 25.0701C237.523 23.9672 237.836 22.9603 238.46 22.0494C239.106 21.1384 240.018 20.4191 241.193 19.8916C242.394 19.3643 243.799 19.1006 245.407 19.1006C247.782 19.1006 249.678 19.6999 251.092 20.8985C252.509 22.0733 253.288 23.6676 253.432 25.6814H248.609C248.536 24.8902 248.201 24.2669 247.602 23.8113C247.026 23.3319 246.246 23.0923 245.262 23.0923C244.35 23.0923 243.641 23.26 243.139 23.5956C242.659 23.9312 242.418 24.3988 242.418 24.9981C242.418 25.6694 242.754 26.1847 243.427 26.5444C244.098 26.88 245.143 27.2276 246.557 27.5873C247.998 27.9469 249.185 28.3185 250.122 28.7019C251.056 29.0855 251.86 29.6848 252.533 30.5C253.229 31.2913 253.589 32.3459 253.612 33.6645C253.612 34.8154 253.288 35.8463 252.641 36.7572C252.018 37.6682 251.106 38.3874 249.906 38.9148C248.73 39.4183 247.35 39.67 245.767 39.67Z" fill="#FAFAFA"/>
<path d="M228.919 39.3462L222.153 30.8596V39.3462H217.113V12.7354H222.153V27.8748L228.847 19.4241H235.398L226.616 29.4211L235.47 39.3462H228.919Z" fill="#FAFAFA"/>
<path d="M194.164 29.3852C194.164 27.3236 194.584 25.5255 195.424 23.9912C196.264 22.433 197.428 21.2341 198.916 20.3952C200.403 19.532 202.107 19.1006 204.027 19.1006C206.499 19.1006 208.539 19.7239 210.146 20.9705C211.777 22.1931 212.869 23.9192 213.421 26.1488H207.987C207.699 25.2858 207.206 24.6145 206.51 24.1349C205.839 23.6316 204.999 23.3799 203.991 23.3799C202.551 23.3799 201.411 23.9072 200.571 24.9621C199.731 25.993 199.311 27.4673 199.311 29.3852C199.311 31.2793 199.731 32.7535 200.571 33.8084C201.411 34.8393 202.551 35.3547 203.991 35.3547C206.03 35.3547 207.363 34.4437 207.987 32.6218H213.421C212.869 34.7794 211.777 36.4935 210.146 37.7641C208.514 39.0347 206.474 39.67 204.027 39.67C202.107 39.67 200.403 39.2504 198.916 38.4114C197.428 37.5482 196.264 36.3496 195.424 34.8154C194.584 33.2571 194.164 31.447 194.164 29.3852Z" fill="#FAFAFA"/>
<path d="M169.77 29.3134C169.77 27.2996 170.165 25.5135 170.957 23.9552C171.773 22.397 172.865 21.1981 174.233 20.3592C175.625 19.52 177.172 19.1006 178.876 19.1006C180.364 19.1006 181.66 19.4002 182.763 19.9995C183.891 20.5988 184.791 21.3541 185.463 22.265V19.4242H190.538V39.3464H185.463V36.4336C184.815 37.3685 183.915 38.1477 182.763 38.771C181.636 39.3703 180.328 39.67 178.84 39.67C177.16 39.67 175.625 39.2384 174.233 38.3754C172.865 37.5125 171.773 36.3016 170.957 34.7434C170.165 33.1612 169.77 31.351 169.77 29.3134ZM185.463 29.3852C185.463 28.1626 185.223 27.1197 184.743 26.2567C184.263 25.3697 183.615 24.6985 182.799 24.2429C181.984 23.7635 181.108 23.5236 180.172 23.5236C179.236 23.5236 178.372 23.7515 177.58 24.2069C176.788 24.6625 176.14 25.3338 175.637 26.2207C175.157 27.0837 174.917 28.1146 174.917 29.3134C174.917 30.512 175.157 31.5669 175.637 32.4779C176.14 33.3649 176.788 34.0481 177.58 34.5277C178.396 35.0071 179.26 35.2467 180.172 35.2467C181.108 35.2467 181.984 35.019 182.799 34.5637C183.615 34.0841 184.263 33.4128 184.743 32.5499C185.223 31.6627 185.463 30.608 185.463 29.3852Z" fill="#FAFAFA"/>
<path d="M162.974 23.56V33.1976C162.974 33.8689 163.13 34.3602 163.442 34.6718C163.778 34.9595 164.33 35.1034 165.098 35.1034H167.438V39.3468H164.27C160.023 39.3468 157.899 37.285 157.899 33.1616V23.56H155.523V19.4247H157.899V14.498H162.974V19.4247H167.438V23.56H162.974Z" fill="#FAFAFA"/>
<path d="M143.85 39.5984C142.098 39.5984 140.514 39.2988 139.099 38.6995C137.707 38.1002 136.603 37.237 135.787 36.1103C134.971 34.9835 134.551 33.6529 134.527 32.1187H139.926C139.998 33.1496 140.358 33.9646 141.006 34.5641C141.678 35.1634 142.59 35.463 143.742 35.463C144.918 35.463 145.842 35.1874 146.514 34.6358C147.185 34.0605 147.521 33.3173 147.521 32.4063C147.521 31.6631 147.293 31.0518 146.837 30.5724C146.381 30.0928 145.806 29.7212 145.11 29.4576C144.438 29.1699 143.502 28.8582 142.302 28.5226C140.67 28.043 139.338 27.5757 138.307 27.1201C137.299 26.6407 136.423 25.9335 135.679 24.9985C134.959 24.0396 134.599 22.769 134.599 21.1866C134.599 19.7003 134.971 18.4057 135.715 17.3028C136.459 16.2002 137.503 15.361 138.847 14.7857C140.19 14.1864 141.726 13.8867 143.454 13.8867C146.045 13.8867 148.145 14.522 149.753 15.7926C151.385 17.0392 152.285 18.7893 152.453 21.0428H146.909C146.861 20.1796 146.489 19.4726 145.794 18.9211C145.122 18.3457 144.222 18.0581 143.094 18.0581C142.11 18.0581 141.318 18.3098 140.718 18.8133C140.142 19.3167 139.854 20.0479 139.854 21.0069C139.854 21.6781 140.07 22.2415 140.502 22.697C140.958 23.1284 141.51 23.488 142.158 23.7759C142.83 24.0396 143.766 24.3512 144.966 24.7109C146.598 25.1902 147.929 25.6698 148.961 26.1492C149.993 26.6287 150.881 27.348 151.625 28.3069C152.369 29.2659 152.741 30.5244 152.741 32.0827C152.741 33.4252 152.392 34.6718 151.697 35.8227C151.001 36.9733 149.981 37.8963 148.637 38.5915C147.293 39.2628 145.697 39.5984 143.85 39.5984Z" fill="#FAFAFA"/>
<path d="M127.088 23.56V33.1976C127.088 33.8689 127.243 34.3602 127.556 34.6718C127.891 34.9595 128.443 35.1034 129.211 35.1034H131.551V39.3468H128.383C124.136 39.3468 122.012 37.285 122.012 33.1616V23.56H119.637V19.4247H122.012V14.498H127.088V19.4247H131.551V23.56H127.088Z" fill="#FAFAFA"/>
<path d="M107.122 39.67C105.202 39.67 103.475 39.2504 101.939 38.4114C100.403 37.5482 99.1913 36.3376 98.3035 34.7794C97.4397 33.2211 97.0078 31.423 97.0078 29.3852C97.0078 27.3476 97.4516 25.5494 98.3395 23.9912C99.2515 22.433 100.487 21.2341 102.047 20.3952C103.607 19.532 105.346 19.1006 107.266 19.1006C109.186 19.1006 110.926 19.532 112.485 20.3952C114.045 21.2341 115.269 22.433 116.157 23.9912C117.069 25.5494 117.525 27.3476 117.525 29.3852C117.525 31.423 117.057 33.2211 116.121 34.7794C115.209 36.3376 113.961 37.5482 112.377 38.4114C110.818 39.2504 109.066 39.67 107.122 39.67ZM107.122 35.2827C108.034 35.2827 108.886 35.067 109.678 34.6354C110.494 34.1801 111.142 33.5088 111.622 32.6218C112.101 31.7346 112.341 30.6558 112.341 29.3852C112.341 27.4913 111.838 26.041 110.83 25.0341C109.846 24.0032 108.634 23.4876 107.194 23.4876C105.754 23.4876 104.542 24.0032 103.559 25.0341C102.599 26.041 102.119 27.4913 102.119 29.3852C102.119 31.2793 102.587 32.7416 103.523 33.7725C104.483 34.7794 105.682 35.2827 107.122 35.2827Z" fill="#FAFAFA"/>
<path d="M89.3904 26.4725C90.8061 26.7362 91.9701 27.4435 92.8818 28.5943C93.7938 29.745 94.2498 31.0635 94.2498 32.55C94.2498 33.8926 93.9138 35.0792 93.2419 36.1101C92.594 37.117 91.646 37.908 90.3983 38.4835C89.1504 39.0588 87.6748 39.3465 85.9709 39.3465H75.1367V14.2461H85.503C87.2067 14.2461 88.6705 14.5218 89.8944 15.0731C91.1421 15.6244 92.0779 16.3916 92.7019 17.3746C93.35 18.3575 93.6738 19.4724 93.6738 20.7189C93.6738 22.1812 93.2779 23.404 92.486 24.387C91.7181 25.3699 90.6863 26.0649 89.3904 26.4725ZM80.1757 24.6027H84.7831C85.9831 24.6027 86.9067 24.339 87.5548 23.8114C88.2026 23.2601 88.5267 22.4809 88.5267 21.4742C88.5267 20.4673 88.2026 19.688 87.5548 19.1367C86.9067 18.5852 85.9831 18.3095 84.7831 18.3095H80.1757V24.6027ZM85.251 35.2469C86.4748 35.2469 87.4228 34.9592 88.0945 34.3839C88.7906 33.8086 89.1385 32.9934 89.1385 31.9387C89.1385 30.8598 88.7786 30.0206 88.0587 29.4213C87.3388 28.798 86.367 28.4864 85.1431 28.4864H80.1757V35.2469H85.251Z" fill="#FAFAFA"/>
</g>
<defs>
<clipPath id="clip0_4647_41723">
<rect width="254" height="54" fill="white"/>
</clipPath>
</defs>
</svg>
